/* XPM */
static char *magick[] = {
/* columns rows colors chars-per-pixel */
"74 70 27 1",
"  c #222222",
". c #000044",
"X c #000055",
"o c #330066",
"O c #333366",
"+ c #444444",
"@ c #555555",
"# c #666699",
"$ c #996633",
"% c #999933",
"& c #999966",
"* c #cc9900",
"= c #cc9933",
"- c #ff9900",
"; c #ff9933",
": c #ffcc00",
"> c #ffcc33",
", c #888888",
"< c Gray60",
"1 c #aaaaaa",
"2 c #bbbbbb",
"3 c #9999cc",
"4 c Gray80",
"5 c #dddddd",
"6 c #eeeeee",
"7 c Gray100",
"8 c None",
/* pixels */
"888888888888888888888888851,,,14888888888888888888888888888888888888888888",
"888888888888888888888885,%=;;;==&48888888888888888888888888888888888888888",
"88888888888888888888882%->>>>>>>:=1888888888888888888888888888888888888888",
"8888888888888888888884%>>>>>>>>>>>=288888888888888888888888888888888888888",
"888888888888888888886&:>>>>>>>>>>>>=58888888888888888888888888888888888888",
"888888888888888888882=>>>>>>>>>>>>>-<8888888888888888888888888888888888888",
"88888888888888888888&:>>>>>>>>>>>>>>&6888888888888888888888888888888888888",
"88888888888888888886&>>>>>>>>>>>>>>>=5888888888888888888888888888888888888",
"88888888888888888886%>>>>>>>>>>>>>>>=2888888888888888888888888888888888888",
"88888888888888888886%>>>>>>>>>>>>>>>=4888888888888888888888888888888888888",
"88888888888888888888&>>>>>>>>>>>>>>>=6888888888888888888888888888888888888",
"88888888888888888888<;>>>>>>>>>>>>>:&8888888888888888888888888888888888888",
"888888888888888888885%>>>>>>>>>>>>>=48888888888888888888888888888888888888",
"8888888888888888888881=>>>>>>>>>>>-,88888888888888888888888888888888888888",
"8888888888888888888886,*>>>>>>>>>-&688888888888888888888888888888888888888",
"88888888888888888888886<=->>>>>-=,5888888888888888888888888888888888888888",
"8888888888888888888888884,%===%&288888888888888888888888888888888888888888",
"88888888888888888888888888865588888888888888888888888888888888888888888888",
"511111111111111888888211111111131111588882,,,,,,,,,,,,,,<12588888888888888",
"1.XXXXXXXXXXXXX688888O.XXXXXXXXXXXX.18888#..............XXXXO#288888888888",
"1XXXXXXXXXXXXXO688888OXXXXXXXXXXXXXX18888#XXXXXXXXXXXXXXXXXXXXX@1888888888",
"1XXXXXXXXXXXXXO688888OXXXXXXXXXXXXXX18888#XXXXXXXXXXXXXXXXXXXXXXX#68888888",
"1XXXXXXXXXXXXXO688888OXXXXXXXXXXXXXX18888#XXXXXXXXXXXXXXXXXXXXXXXXO4888888",
"1XXXXXXXXXXXXXO688888OXXXXXXXXXXXXXX18888#XXXXXXXXXXXXXXXXXXXXXXXXXO488888",
"1XXXXXXXXXXXXXO688888OXXXXXXXXXXXXXX18888#XXXXXXXXXXXXXXXXXXXXXXXXXXO48888",
"1XXXXXXXXXXXXXO688888OXXXXXXXXXXXXXX18888#XXXXXXXXXXXXXXXXXXXXXXXXXXXO6888",
"1XXXXXXXXXXXXXO688888OXXXXXXXXXXXXXX18888#XXXXXXXXXXXXXXX oXXXXXXXXXXX#888",
"1XXXXXXXXXXXXXO688888OXXXXXXXXXXXXXX18888#XXXXXXXXXXXX+%=;==$OXXXXXXXXX488",
"1XXXXXXXXXXXXXO688888OXXXXXXXXXXXXXX18888#XXXXXXXXXXX$>>>>>>>=OXXXXXXXX@88",
"1XXXXXXXXXXXXXO688888OXXXXXXXXXXXXXX18888#XXXXXXXXXX@>>>>==>>>=XXXXXXXXX48",
"1XXXXXXXXXXXXXO688888OXXXXXXXXXXXXXX18888#XXXXXXXXXX%>>>=X+>>>>OXXXXXXXX#8",
"1XXXXXXXXXXXXXO688888OXXXXXXXXXXXXXX18888#XXXXXXXXXX=>>>$XX=>>>+XXXXXXXXO8",
"1XXXXXXXXXXXXXO688888OXXXXXXXXXXXXXX18888#XXXXXXXXXX=>>>$XX=>>>@XXXXXXXXX4",
"1XXXXXXXXXXXXXO688888OXXXXXXXXXXXXXX18888#XXXXXXXXXX=>>>$XX$==%OXXXXXXXXX3",
"1XXXXXXXXXXXXXO688888OXXXXXXXXXXXXXX18888#XXXXXXXXXX=>>>$XXXXXXXXXXXXXXX.,",
"1XXXXXXXXXXXXXO688888OXXXXXXXXXXXXXX18888#XXXXXXXXXX=>>>$O$=%+XXXXXXXXXX.,",
"1XXXXXXXXXXXXXO688888OXXXXXXXXXXXXXX18888#XXXXXXXXXX=>>>>>>>>>$XXXXXXXXXX#",
"1XXXXXXXXXXXXXO688888OXXXXXXXXXXXXXX18888#XXXXXXXXXX=>>>>>>>>>>OXXXXXXXXX#",
"1XXXXXXXXXXXXXO688888OXXXXXXXXXXXXXX18888#XXXXXXXXXX=>>>>$$>>>>+XXXXXXXX.,",
"1XXXXXXXXXXXXXO688888OXXXXXXXXXXXXXX18888#XXXXXXXXXX=>>>%XO;>>>+XXXXXXXXX1",
"1XXXXXXXXXXXXXO688888OXXXXXXXXXXXXXX18888#XXXXXXXXXX=>>>$XX=>>>+XXXXXXXXX4",
"1XXXXXXXXXXXXXO688888OXXXXXXXXXXXXXX18888#XXXXXXXXXX=>>>$XX=>>>+XXXXXXXXO6",
"1XXXXXXXXXXXXXO688888OXXXXXXXXXXXXXX18888#XXXXXXXXXX=>>>$XO;>>>+XXXXXXXX#8",
"1XXXXXXXXXXXXXO688888OXXXXXXXXXXXXXX18888#XXXXXXXXXX$>>>= @>>>;OXXXXXXXX38",
"1XXXXXXXXXXXXXO688888OXXXXXXXXXXXXXX18888#XXXXXXXXXXO;>>>;>>>>$XXXXXXXXO68",
"1XXXXXXXXXXXXXO688888OXXXXXXXXXXXXXX18888#XXXXXXXXXXX+=>>>>>>%OXXXXXXXX188",
"1XXXXXXXXXXXXXO688888OXXXXXXXXXXXXXX18888#XXXXXXXXXXXX @$=%$+XXXXXXXXX@888",
"1XXXXXXXXXXXXXO688888OXXXXXXXXXXXXXX18888#XXXXXXXXXXXXXXXXXXXXXXXXXXXX4888",
"1XXXXXXXXXXXXXO688888OXXXXXXXXXXXXXX18888#XXXXXXXXXXXXXXXXXXXXXXXXXXX38888",
"1XXXXXXXXXXXXXO688888OXXXXXXXXXXXXXX18888#XXXXXXXXXXXXXXXXXXXXXXXXXX,88888",
"1XXXXXXXXXXXXXO688888O.XXXXXXXXXXXX.18888#XXXXXXXXXXXXXXXXXXXXXXXXX,888888",
"1XXXXXXXXXXXXXO68888821111111111111158888#XXXXXXXXXXXXXXXXXXXXXXXO28888888",
"1XXXXXXXXXXXXXO68888888888888888888888888#XXXXXXXXXXXXXXXXXXXXXO,688888888",
"1XXXXXXXXXXXXXO68888888888888888888888888#XXXXXXXXXXXXXXX.XXX@,58888888888",
"1XXXXXXXXXXXXXO68888888888888888888888888#XXXXXXXXXXXXXX#,<158888888888888",
"1XXXXXXXXXXXXXO68888888888888888888888888#XXXXXXXXXXXXXX188888888888888888",
"1XXXXXXXXXXXXXO88888888888888888888888888#XXXXXXXXXXXXXX188888888888888888",
"1XXXXXXXXXXXXXO66666666666666666666688888#XXXXXXXXXXXXXX188888888888888888",
"1XXXXXXXXXXXXXXOOOOOOOOOOOOOOOOOOOOX18888#XXXXXXXXXXXXXX188888888888888888",
"1XXXXXXXXXXXXXXXXXXXXXXXXXXXXXXXXXXX18888#XXXXXXXXXXXXXX188888888888888888",
"1XXXXXXXXXXXXXXXXXXXXXXXXXXXXXXXXXXX18888#XXXXXXXXXXXXXX188888888888888888",
"1XXXXXXXXXXXXXXXXXXXXXXXXXXXXXXXXXXX18888#XXXXXXXXXXXXXX188888888888888888",
"1XXXXXXXXXXXXXXXXXXXXXXXXXXXXXXXXXXX18888#XXXXXXXXXXXXXX188888888888888888",
"1XXXXXXXXXXXXXXXXXXXXXXXXXXXXXXXXXXX18888#XXXXXXXXXXXXXX188888888888888888",
"1XXXXXXXXXXXXXXXXXXXXXXXXXXXXXXXXXXX18888#XXXXXXXXXXXXXX188888888888888888",
"1XXXXXXXXXXXXXXXXXXXXXXXXXXXXXXXXXXX18888#XXXXXXXXXXXXXX188888888888888888",
"1XXXXXXXXXXXXXXXXXXXXXXXXXXXXXXXXXXX18888#XXXXXXXXXXXXXX188888888888888888",
"1XXXXXXXXXXXXXXXXXXXXXXXXXXXXXXXXXXX18888#XXXXXXXXXXXXXX188888888888888888",
"3...................................38888#..............388888888888888888",
"5,,,,,,,,,,,,,,,,,,,,,,,,,,,,,,,,,,,588882,,,,,,,,,,,,,,588888888888888888"
};
